{"glyphs":{"0":{"ha":911,"x_min":65,"x_max":846,"o":"m 458 -14 q 260 47 350 -14 q 118 220 171 108 q 65 483 65 332 q 117 746 65 635 q 258 917 169 857 q 456 978 347 978 q 652 917 564 978 q 793 746 740 857 q 846 482 846 635 q 794 219 846 331 q 653 47 742 108 q 458 -14 565 -14 m 456 110 q 642 204 569 110 q 714 483 714 299 q 641 760 714 665 q 456 856 568 856 q 269 761 342 856 q 197 483 197 667 q 269 204 197 299 q 456 110 342 110 z "},"1":{"ha":482,"x_min":43,"x_max":369,"o":"m 240 0 l 240 847 l 43 847 l 43 964 l 369 964 l 369 0 l 240 0 z "},"2":{"ha":751,"x_min":46,"x_max":693,"o":"m 46 0 l 46 79 l 401 454 q 486 551 456 510 q 530 626 517 592 q 543 699 543 661 q 496 814 543 772 q 374 856 449 856 q 244 820 300 856 q 146 711 189 785 l 54 788 q 378 978 167 978 q 533 943 467 978 q 635 845 599 908 q 671 700 671 782 q 656 593 671 640 q 605 496 642 546 q 503 379 568 446 l 249 117 l 693 117 l 693 0 l 46 0 z "},"3":{"ha":747,"x_min":42,"x_max":685,"o":"m 343 -14 q 42 125 150 -14 l 131 214 q 218 137 163 165 q 342 108 274 108 q 494 162 436 108 q 553 304 553 215 q 494 446 553 393 q 335 499 435 499 q 236 485 285 499 l 236 564 l 485 847 l 88 847 l 88 964 l 674 964 l 674 886 l 408 586 l 410 586 q 549 549 488 586 q 648 448 611 513 q 685 297 685 383 q 641 135 685 206 q 521 26 597 65 q 343 -14 444 -14 z "},"4":{"ha":831,"x_min":46,"x_max":785,"o":"m 46 251 l 46 332 l 397 964 l 544 964 l 207 368 l 517 368 l 517 638 l 646 638 l 646 368 l 785 368 l 785 251 l 646 251 l 646 0 l 517 0 l 517 251 l 46 251 z "},"5":{"ha":751,"x_min":39,"x_max":694,"o":"m 344 -14 q 39 125 147 -14 l 128 214 q 215 137 160 165 q 342 108 271 108 q 501 163 439 108 q 563 311 563 218 q 502 458 563 407 q 358 510 442 510 q 255 495 301 510 q 167 449 208 481 l 96 519 l 139 964 l 646 964 l 646 847 l 246 847 l 218 576 q 382 617 279 617 q 551 575 481 617 q 658 463 621 533 q 694 304 694 392 q 649 140 694 213 q 525 27 604 68 q 344 -14 446 -14 z "},"6":{"ha":783,"x_min":56,"x_max":729,"o":"m 392 -14 q 220 31 296 -14 q 100 149 144 75 q 56 317 56 224 q 144 571 56 444 l 428 964 l 579 964 l 326 618 q 422 635 365 635 q 576 594 506 635 q 688 483 646 554 q 729 321 729 413 q 683 152 729 228 q 561 31 638 76 q 392 -14 485 -14 m 392 108 q 497 136 450 108 q 570 213 543 164 q 597 321 597 261 q 569 428 597 381 q 495 504 542 476 q 392 532 449 532 q 287 504 333 532 q 213 428 240 476 q 186 321 186 381 q 213 213 186 261 q 287 136 240 164 q 392 108 333 108 z "},"7":{"ha":729,"x_min":43,"x_max":685,"o":"m 194 0 l 539 847 l 43 847 l 43 964 l 685 964 l 685 883 l 332 0 l 194 0 z "},"8":{"ha":764,"x_min":58,"x_max":706,"o":"m 382 -14 q 213 22 285 -14 q 100 122 140 58 q 58 267 60 186 q 102 417 58 351 q 224 517 146 483 q 133 603 164 547 q 103 725 103 658 q 139 856 103 799 q 238 947 175 914 q 382 979 301 979 q 526 947 463 979 q 625 856 589 914 q 661 725 661 799 q 631 603 661 658 q 540 517 600 547 q 662 417 618 483 q 706 267 706 351 q 665 122 706 186 q 551 22 624 58 q 382 -14 479 -14 m 382 563 q 496 606 451 563 q 540 717 540 649 q 496 826 540 783 q 382 868 451 868 q 269 826 313 868 q 225 717 225 783 q 269 606 225 649 q 382 563 313 563 m 382 104 q 524 154 468 104 q 579 283 579 204 q 524 411 579 361 q 382 461 468 461 q 240 411 296 461 q 185 283 185 361 q 240 154 185 204 q 382 104 296 104 z "},"9":{"ha":783,"x_min":54,"x_max":728,"o":"m 204 0 l 458 346 q 361 329 418 329 q 207 369 276 329 q 96 481 138 410 q 54 643 54 551 q 99 812 54 736 q 222 933 144 888 q 392 978 299 978 q 563 933 486 978 q 683 815 639 889 q 728 647 728 740 q 639 393 728 519 l 356 0 l 204 0 m 392 432 q 497 460 450 432 q 570 536 543 489 q 597 643 597 583 q 570 752 597 704 q 497 828 543 800 q 392 856 450 856 q 287 828 333 856 q 213 751 240 800 q 185 643 185 703 q 213 536 185 583 q 287 460 240 489 q 392 432 333 432 z "},"A":{"ha":967,"x_min":43,"x_max":925,"o":"m 43 0 l 438 964 l 532 964 l 925 0 l 783 0 l 696 218 l 268 218 l 182 0 l 43 0 m 314 332 l 651 332 l 483 754 l 314 332 z "},"B":{"ha":865,"x_min":114,"x_max":803,"o":"m 114 0 l 114 964 l 475 964 q 632 930 568 964 q 728 840 696 896 q 761 718 761 785 q 644 515 760 586 q 761 417 719 479 q 803 272 803 354 q 765 134 803 196 q 657 36 728 72 q 486 0 586 0 l 114 0 m 472 850 l 244 850 l 244 564 l 478 564 q 588 601 547 564 q 629 707 629 638 q 586 813 629 776 q 472 850 543 850 m 497 450 l 244 450 l 244 114 l 493 114 q 623 163 575 114 q 671 282 671 213 q 624 401 671 351 q 497 450 576 450 z "},"C":{"ha":956,"x_min":65,"x_max":910,"o":"m 551 -14 q 358 24 446 -14 q 203 131 269 63 q 101 288 138 199 q 65 482 65 378 q 101 676 65 586 q 203 833 138 765 q 356 940 268 901 q 550 978 444 978 q 749 939 663 978 q 903 833 836 900 l 813 743 q 700 824 767 794 q 550 853 633 853 q 369 805 447 853 q 245 674 290 757 q 200 482 200 590 q 245 290 200 374 q 369 159 290 207 q 550 111 449 111 q 707 141 640 111 q 819 222 774 171 l 910 133 q 753 25 843 64 q 551 -14 664 -14 z "},"D":{"ha":1028,"x_min":114,"x_max":961,"o":"m 114 0 l 114 964 l 471 964 q 665 928 576 964 q 821 826 754 892 q 924 673 888 761 q 961 482 961 585 q 924 292 961 379 q 822 138 888 204 q 667 36 756 72 q 474 0 578 0 l 114 0 m 468 844 l 244 844 l 244 119 l 468 119 q 655 166 574 119 q 781 294 736 213 q 826 483 826 376 q 781 670 826 589 q 654 798 735 751 q 468 844 574 844 z "},"E":{"ha":819,"x_min":114,"x_max":756,"o":"m 114 0 l 114 964 l 749 964 l 749 844 l 244 844 l 244 550 l 710 550 l 710 436 l 244 436 l 244 119 l 756 119 l 756 0 l 114 0 z "},"F":{"ha":786,"x_min":114,"x_max":729,"o":"m 114 0 l 114 964 l 729 964 l 729 844 l 244 844 l 244 543 l 706 543 l 706 424 l 244 424 l 244 0 l 114 0 z "},"G":{"ha":1074,"x_min":65,"x_max":1013,"o":"m 550 -14 q 360 24 449 -14 q 206 131 272 63 q 103 289 140 199 q 65 483 65 379 q 103 677 65 588 q 207 835 140 767 q 363 940 274 903 q 558 978 453 978 q 771 933 674 978 q 933 806 868 888 l 843 715 q 722 817 797 782 q 558 853 647 853 q 371 806 451 853 q 245 675 290 758 q 200 483 200 592 q 245 290 200 374 q 369 160 290 207 q 546 113 447 113 q 772 185 685 113 q 874 394 858 257 l 540 394 l 540 514 l 1013 514 l 1013 494 q 953 214 1013 326 q 790 44 894 101 q 550 -14 685 -14 z "},"H":{"ha":981,"x_min":114,"x_max":867,"o":"m 114 0 l 114 964 l 244 964 l 244 558 l 736 558 l 736 964 l 867 964 l 867 0 l 736 0 l 736 439 l 244 439 l 244 0 l 114 0 z "},"I":{"ha":358,"x_min":114,"x_max":244,"o":"m 114 0 l 114 964 l 244 964 l 244 0 l 114 0 z "},"J":{"ha":688,"x_min":42,"x_max":585,"o":"m 292 -14 q 146 19 210 -14 q 42 107 82 51 l 133 192 q 288 111 189 111 q 407 158 360 111 q 454 294 454 204 l 454 964 l 585 964 l 585 301 q 547 133 585 204 q 442 24 508 63 q 292 -14 376 -14 z "},"K":{"ha":925,"x_min":114,"x_max":883,"o":"m 114 0 l 114 964 l 244 964 l 244 522 l 700 964 l 869 964 l 392 504 l 883 0 l 710 0 l 244 482 l 244 0 l 114 0 z "},"L":{"ha":767,"x_min":114,"x_max":719,"o":"m 114 0 l 114 964 l 244 964 l 244 119 l 719 119 l 719 0 l 114 0 z "},"M":{"ha":1165,"x_min":114,"x_max":1051,"o":"m 114 0 l 114 964 l 206 964 l 583 343 l 960 964 l 1051 964 l 1051 0 l 921 0 l 921 678 l 629 197 l 538 197 l 244 678 l 244 0 l 114 0 z "},"N":{"ha":986,"x_min":114,"x_max":872,"o":"m 114 0 l 114 964 l 206 964 l 742 249 l 742 964 l 872 964 l 872 0 l 781 0 l 244 715 l 244 0 l 114 0 z "},"O":{"ha":1103,"x_min":65,"x_max":1038,"o":"m 553 -14 q 362 24 450 -14 q 206 131 274 63 q 102 289 139 199 q 65 483 65 379 q 102 677 65 588 q 205 834 139 767 q 359 940 271 901 q 550 978 447 978 q 741 940 653 978 q 896 834 829 901 q 1000 676 963 767 q 1038 482 1038 586 q 1000 288 1038 378 q 897 131 963 199 q 742 24 831 63 q 553 -14 654 -14 m 550 111 q 733 159 653 111 q 858 291 813 207 q 903 483 903 375 q 857 674 903 590 q 732 805 811 757 q 550 853 653 853 q 368 805 447 853 q 244 674 289 757 q 200 483 200 592 q 244 291 200 375 q 368 159 289 207 q 550 111 447 111 z "},"P":{"ha":842,"x_min":114,"x_max":783,"o":"m 114 0 l 114 964 l 472 964 q 631 928 560 964 q 742 825 701 892 q 783 669 783 758 q 742 514 783 581 q 631 411 701 447 q 472 375 560 375 l 244 375 l 244 0 l 114 0 m 464 850 l 244 850 l 244 489 l 464 489 q 599 538 546 489 q 651 669 651 586 q 599 801 651 753 q 464 850 546 850 z "},"Q":{"ha":1135,"x_min":65,"x_max":1099,"o":"m 554 -14 q 363 24 451 -14 q 207 131 274 63 q 103 289 140 199 q 65 483 65 379 q 103 677 65 588 q 206 834 140 767 q 360 940 272 901 q 551 978 449 978 q 742 940 653 978 q 897 834 831 901 q 1001 676 964 767 q 1038 482 1038 586 q 1011 318 1038 396 q 938 178 985 240 l 1099 17 l 1015 -68 l 856 92 q 717 14 794 42 q 554 -14 640 -14 m 551 111 q 668 130 614 111 q 765 182 722 149 l 564 383 l 649 468 l 846 269 q 888 368 874 314 q 903 483 903 422 q 858 674 903 590 q 733 805 813 757 q 551 853 654 853 q 369 805 449 853 q 245 674 290 757 q 200 483 200 592 q 245 291 200 375 q 369 159 290 207 q 551 111 449 111 z "},"R":{"ha":875,"x_min":114,"x_max":835,"o":"m 114 0 l 114 964 l 468 964 q 627 928 560 964 q 732 832 694 893 q 769 692 769 771 q 693 500 769 574 q 489 421 617 426 l 835 0 l 669 0 l 329 419 l 244 419 l 244 0 l 114 0 m 464 850 l 244 850 l 244 529 l 463 529 q 593 572 547 529 q 639 689 639 615 q 593 804 639 758 q 464 850 547 850 z "},"S":{"ha":771,"x_min":44,"x_max":708,"o":"m 382 -14 q 187 28 268 -14 q 44 149 106 69 l 133 238 q 239 141 179 174 q 386 108 299 108 q 524 146 472 108 q 576 249 576 183 q 551 336 576 303 q 484 391 526 369 q 392 430 442 413 q 292 467 342 447 q 199 517 242 488 q 132 596 157 547 q 107 718 107 644 q 147 857 107 799 q 255 947 186 915 q 410 978 324 978 q 578 941 504 978 q 701 844 653 904 l 613 756 q 520 831 569 806 q 407 856 471 856 q 283 822 329 856 q 238 726 238 788 q 263 647 238 678 q 331 597 289 617 q 423 559 372 576 q 524 521 474 542 q 615 468 574 500 q 683 385 657 436 q 708 258 708 335 q 620 58 708 131 q 382 -14 532 -14 z "},"T":{"ha":868,"x_min":42,"x_max":826,"o":"m 369 0 l 369 844 l 42 844 l 42 964 l 826 964 l 826 844 l 500 844 l 500 0 l 369 0 z "},"U":{"ha":949,"x_min":103,"x_max":847,"o":"m 475 -14 q 284 35 368 -14 q 151 167 200 83 q 103 357 103 250 l 103 964 l 233 964 l 233 360 q 265 228 233 283 q 352 142 297 172 q 475 111 407 111 q 599 142 544 111 q 684 228 653 172 q 715 358 715 283 l 715 964 l 847 964 l 847 356 q 799 165 847 249 q 666 34 750 82 q 475 -14 582 -14 z "},"V":{"ha":956,"x_min":43,"x_max":913,"o":"m 429 0 l 43 964 l 185 964 l 478 214 l 772 964 l 913 964 l 524 0 l 429 0 z "},"W":{"ha":1363,"x_min":44,"x_max":1317,"o":"m 360 0 l 44 964 l 175 964 l 406 236 l 633 964 l 728 964 l 956 236 l 1188 964 l 1317 964 l 1003 0 l 910 0 l 681 728 l 453 0 l 360 0 z "},"X":{"ha":960,"x_min":42,"x_max":918,"o":"m 42 0 l 401 493 l 58 964 l 214 964 l 488 585 l 756 964 l 903 964 l 571 500 l 918 0 l 765 0 l 485 410 l 189 0 l 42 0 z "},"Y":{"ha":924,"x_min":40,"x_max":885,"o":"m 397 0 l 397 424 l 40 964 l 192 964 l 464 547 l 736 964 l 885 964 l 528 429 l 528 0 l 397 0 z "},"Z":{"ha":810,"x_min":54,"x_max":751,"o":"m 54 0 l 54 90 l 578 844 l 83 844 l 83 964 l 751 964 l 751 875 l 228 119 l 742 119 l 742 0 l 54 0 z "},"a":{"ha":808,"x_min":50,"x_max":717,"o":"m 372 -14 q 208 31 282 -14 q 92 154 135 76 q 50 329 50 232 q 92 503 50 425 q 208 628 135 582 q 372 674 281 674 q 499 646 442 674 q 592 569 556 618 l 592 660 l 717 660 l 717 0 l 592 0 l 592 89 q 500 14 557 42 q 372 -14 443 -14 m 393 104 q 543 167 486 104 q 600 329 600 229 q 542 493 600 431 q 392 556 485 556 q 281 526 329 556 q 206 447 233 497 q 179 331 179 396 q 206 213 179 264 q 282 133 233 163 q 393 104 331 104 z "},"b":{"ha":808,"x_min":92,"x_max":758,"o":"m 92 0 l 92 992 l 217 992 l 217 568 q 310 646 253 618 q 439 674 368 674 q 601 628 529 674 q 716 504 674 582 q 758 329 758 426 q 716 154 758 232 q 601 31 674 76 q 439 -14 529 -14 q 310 14 368 -14 q 217 90 253 42 l 217 0 l 92 0 m 418 104 q 571 167 511 104 q 631 331 631 231 q 571 492 631 429 q 419 556 511 556 q 267 492 325 556 q 210 329 210 429 q 267 167 210 231 q 418 104 325 104 z "},"c":{"ha":679,"x_min":49,"x_max":647,"o":"m 393 -14 q 217 32 296 -14 q 94 156 139 78 q 49 331 49 233 q 94 506 49 428 q 217 628 139 583 q 393 674 296 674 q 534 644 468 674 q 647 563 600 615 l 564 479 q 393 553 500 553 q 282 524 331 553 q 206 446 233 496 q 178 331 178 396 q 206 215 178 265 q 282 135 233 164 q 393 107 331 107 q 565 181 501 107 l 647 97 q 535 15 601 44 q 393 -14 468 -14 z "},"d":{"ha":808,"x_min":50,"x_max":717,"o":"m 372 -14 q 208 31 282 -14 q 92 154 135 76 q 50 329 50 232 q 92 503 50 425 q 208 628 135 582 q 372 674 281 674 q 499 646 442 674 q 592 569 556 618 l 592 992 l 717 992 l 717 0 l 592 0 l 592 89 q 500 14 557 42 q 372 -14 443 -14 m 393 104 q 543 167 486 104 q 600 329 600 229 q 542 493 600 431 q 392 556 485 556 q 281 526 329 556 q 206 447 233 497 q 179 331 179 396 q 206 213 179 264 q 282 133 233 163 q 393 104 331 104 z "},"e":{"ha":744,"x_min":49,"x_max":700,"o":"m 397 -14 q 219 31 297 -14 q 94 154 140 76 q 49 331 49 232 q 94 506 49 428 q 216 628 139 583 q 389 674 293 674 q 549 632 479 674 q 660 517 619 590 q 700 350 700 443 q 693 283 700 324 l 176 283 q 250 152 192 200 q 397 104 308 104 q 499 124 453 104 q 579 182 546 143 l 660 100 q 543 15 611 44 q 397 -14 475 -14 m 386 558 q 247 513 303 558 q 176 388 192 467 l 578 388 q 517 513 567 468 q 386 558 468 558 z "},"f":{"ha":554,"x_min":24,"x_max":613,"o":"m 186 0 l 186 546 l 24 546 l 24 660 l 186 660 l 186 758 q 218 886 186 831 q 306 974 250 942 q 438 1006 363 1006 q 535 985 493 1006 q 613 929 576 965 l 531 849 q 490 878 513 868 q 436 889 468 889 q 344 854 376 889 q 311 758 311 819 l 311 660 l 521 660 l 521 546 l 311 546 l 311 0 l 186 0 z "},"g":{"ha":804,"x_min":49,"x_max":713,"o":"m 365 11 q 203 54 275 11 q 90 173 132 97 q 49 343 49 249 q 90 512 49 438 q 203 630 132 586 q 364 674 275 674 q 494 647 436 674 q 588 571 551 619 l 588 660 l 713 660 l 713 26 q 669 -140 713 -68 q 547 -251 625 -211 q 365 -290 468 -290 q 185 -253 264 -290 q 60 -147 107 -215 l 140 -65 q 235 -144 179 -117 q 368 -171 292 -171 q 528 -118 469 -171 q 588 26 588 -65 l 588 114 q 494 38 551 65 q 365 11 438 11 m 390 129 q 538 188 482 129 q 594 342 594 246 q 538 497 594 438 q 389 556 482 556 q 237 496 296 556 q 178 343 178 436 q 237 188 178 247 q 390 129 296 129 z "},"h":{"ha":761,"x_min":92,"x_max":683,"o":"m 92 0 l 92 992 l 217 992 l 217 574 q 306 647 251 621 q 425 674 360 674 q 558 640 500 674 q 650 546 617 606 q 683 410 683 486 l 683 0 l 558 0 l 558 385 q 511 508 558 460 q 389 557 464 557 q 265 508 314 557 q 217 385 217 460 l 217 0 l 92 0 z "},"i":{"ha":311,"x_min":76,"x_max":235,"o":"m 156 792 q 99 815 121 792 q 76 872 76 838 q 99 928 76 906 q 156 951 121 951 q 212 928 189 951 q 235 872 235 906 q 212 815 235 838 q 156 792 189 792 m 93 0 l 93 660 l 218 660 l 218 0 l 93 0 z "},"j":{"ha":319,"x_min":-178,"x_max":246,"o":"m 167 792 q 110 815 132 792 q 89 872 89 838 q 110 928 89 906 q 167 951 132 951 q 224 928 201 951 q 246 872 246 906 q 224 815 246 838 q 167 792 201 792 m 8 -290 q -100 -270 -57 -290 q -178 -210 -143 -250 l -97 -128 q 0 -174 -60 -174 q 72 -148 42 -174 q 103 -71 103 -122 l 103 660 l 228 660 l 228 -69 q 197 -191 228 -142 q 117 -265 167 -240 q 8 -290 67 -290 z "},"k":{"ha":690,"x_min":92,"x_max":675,"o":"m 92 0 l 92 992 l 217 992 l 217 349 l 510 660 l 661 660 l 358 343 l 675 0 l 514 0 l 217 326 l 217 0 l 92 0 z "},"l":{"ha":308,"x_min":92,"x_max":217,"o":"m 92 0 l 92 992 l 217 992 l 217 0 l 92 0 z "},"m":{"ha":1188,"x_min":92,"x_max":1108,"o":"m 92 0 l 92 660 l 217 660 l 217 582 q 302 649 250 625 q 415 674 354 674 q 543 642 486 674 q 632 556 600 611 q 725 642 667 611 q 856 674 783 674 q 983 643 925 674 q 1074 556 1040 613 q 1108 424 1108 500 l 1108 0 l 983 0 l 983 399 q 938 515 983 472 q 825 557 893 557 q 717 522 763 557 q 664 425 672 488 l 664 425 l 664 0 l 539 0 l 539 399 q 494 515 539 472 q 381 557 449 557 q 265 515 313 557 q 218 400 218 472 l 217 400 l 217 0 l 92 0 z "},"n":{"ha":761,"x_min":92,"x_max":683,"o":"m 92 0 l 92 660 l 217 660 l 217 574 q 306 647 251 621 q 425 674 360 674 q 559 636 501 674 q 650 538 617 599 q 683 410 683 478 l 683 0 l 558 0 l 558 385 q 511 508 558 460 q 389 557 464 557 q 265 508 314 557 q 217 385 217 460 l 217 0 l 92 0 z "},"o":{"ha":786,"x_min":49,"x_max":738,"o":"m 393 -14 q 218 32 296 -14 q 94 156 140 78 q 49 332 49 235 q 94 505 49 428 q 218 628 140 582 q 393 674 296 674 q 567 628 489 674 q 691 506 644 583 q 738 332 738 428 q 692 156 738 235 q 567 32 646 78 q 393 -14 489 -14 m 393 107 q 504 136 456 107 q 581 216 553 165 q 608 332 608 267 q 581 446 608 396 q 503 524 553 496 q 393 553 454 553 q 282 524 331 553 q 206 446 233 496 q 178 332 178 396 q 206 215 178 267 q 282 135 233 164 q 393 107 331 107 z "},"p":{"ha":808,"x_min":92,"x_max":758,"o":"m 92 -276 l 92 660 l 217 660 l 217 568 q 310 646 253 618 q 439 674 368 674 q 601 628 529 674 q 716 504 674 582 q 758 329 758 426 q 716 154 758 232 q 601 31 674 76 q 439 -14 529 -14 q 310 14 368 -14 q 217 90 253 42 l 217 -276 l 92 -276 m 418 104 q 571 167 511 104 q 631 331 631 231 q 571 492 631 429 q 419 556 511 556 q 267 492 325 556 q 210 329 210 429 q 267 167 210 231 q 418 104 325 104 z "},"q":{"ha":808,"x_min":50,"x_max":718,"o":"m 374 -14 q 208 31 282 -14 q 92 154 135 76 q 50 329 50 232 q 92 503 50 425 q 208 628 135 582 q 372 674 282 674 q 500 646 443 674 q 593 569 557 618 l 593 660 l 718 660 l 718 -276 l 593 -276 l 593 89 q 500 14 557 42 q 374 -14 443 -14 m 393 104 q 543 167 486 104 q 600 329 600 229 q 542 493 600 431 q 393 556 485 556 q 282 526 331 556 q 206 447 233 497 q 179 331 179 396 q 206 213 179 264 q 282 133 233 163 q 393 104 331 104 z "},"r":{"ha":582,"x_min":92,"x_max":561,"o":"m 92 0 l 92 660 l 217 660 l 217 582 q 291 649 246 625 q 396 674 336 674 q 561 599 494 674 l 479 514 q 375 556 438 556 q 261 511 306 556 q 217 376 217 467 l 217 0 l 92 0 z "},"s":{"ha":593,"x_min":33,"x_max":544,"o":"m 301 -14 q 149 18 218 -14 q 33 107 79 50 l 114 188 q 303 100 185 100 q 393 120 361 100 q 425 176 425 140 q 399 233 425 213 q 333 266 374 253 q 248 292 293 279 q 163 326 203 306 q 97 383 122 347 q 71 479 71 419 q 134 622 71 569 q 307 674 197 674 q 544 565 464 674 l 464 485 q 303 560 406 560 q 220 540 249 560 q 192 489 192 521 q 217 438 192 456 q 282 407 242 419 q 367 381 322 394 q 453 347 413 368 q 519 287 493 325 q 544 188 544 249 q 478 40 544 94 q 301 -14 413 -14 z "},"t":{"ha":511,"x_min":31,"x_max":481,"o":"m 193 0 l 193 546 l 31 546 l 31 660 l 193 660 l 193 936 l 318 936 l 318 660 l 481 660 l 481 546 l 318 546 l 318 0 l 193 0 z "},"u":{"ha":717,"x_min":75,"x_max":640,"o":"m 358 -14 q 211 23 275 -14 q 111 125 147 60 q 75 276 75 190 l 75 660 l 200 660 l 200 282 q 242 153 200 200 q 358 107 285 107 q 474 153 432 107 q 515 282 515 200 l 515 660 l 640 660 l 640 276 q 604 125 640 190 q 505 23 568 60 q 358 -14 442 -14 z "},"v":{"ha":710,"x_min":15,"x_max":694,"o":"m 318 0 l 15 660 l 154 660 l 357 194 l 561 660 l 694 660 l 392 0 l 318 0 z "},"w":{"ha":1042,"x_min":19,"x_max":1022,"o":"m 281 0 l 19 660 l 150 660 l 318 203 l 485 660 l 557 660 l 724 203 l 892 660 l 1022 660 l 763 0 l 689 0 l 521 438 l 353 0 l 281 0 z "},"x":{"ha":700,"x_min":24,"x_max":676,"o":"m 24 0 l 275 339 l 36 660 l 188 660 l 356 429 l 518 660 l 664 660 l 429 340 l 676 0 l 525 0 l 349 249 l 171 0 l 24 0 z "},"y":{"ha":714,"x_min":22,"x_max":692,"o":"m 119 -276 l 282 57 l 22 660 l 161 660 l 351 192 l 553 660 l 692 660 l 383 -6 l 258 -276 l 119 -276 z "},"z":{"ha":621,"x_min":39,"x_max":578,"o":"m 39 0 l 39 68 l 396 546 l 63 546 l 63 660 l 578 660 l 578 592 l 219 114 l 569 114 l 569 0 l 39 0 z "},"ﬁ":{"ha":796,"x_min":24,"x_max":719,"o":"m 186 0 l 186 546 l 24 546 l 24 660 l 186 660 l 186 779 q 215 895 186 844 q 294 976 243 946 q 413 1006 346 1006 q 502 988 463 1006 q 575 940 542 971 l 493 858 q 413 889 460 889 q 338 859 364 889 q 311 779 311 829 l 311 660 l 704 660 l 704 0 l 578 0 l 578 546 l 311 546 l 311 0 l 186 0 m 640 729 q 585 752 607 729 q 563 810 563 775 q 585 866 563 843 q 640 889 607 889 q 697 866 675 889 q 719 810 719 843 q 697 752 719 775 q 640 729 675 729 z "},"ﬂ":{"ha":796,"x_min":24,"x_max":704,"o":"m 186 0 l 186 546 l 24 546 l 24 660 l 186 660 l 186 749 q 218 876 186 818 q 310 970 250 935 q 450 1006 369 1006 l 450 889 q 347 848 382 889 q 311 749 311 807 l 311 660 l 579 660 l 579 997 l 704 997 l 704 0 l 579 0 l 579 546 l 311 546 l 311 0 l 186 0 z "},".":{"ha":403,"x_min":111,"x_max":292,"o":"m 201 -14 q 136 13 161 -14 q 111 78 111 39 q 136 142 111 117 q 201 168 161 168 q 266 142 240 168 q 292 78 292 117 q 266 13 292 39 q 201 -14 240 -14 z "},",":{"ha":382,"x_min":99,"x_max":293,"o":"m 99 -153 l 174 -10 q 128 17 147 -6 q 108 74 108 40 q 135 140 108 113 q 201 168 161 168 q 265 141 238 168 q 293 74 293 114 q 287 37 293 58 q 263 -18 281 15 l 171 -192 l 99 -153 z "},":":{"ha":376,"x_min":97,"x_max":278,"o":"m 188 419 q 122 446 147 419 q 97 511 97 472 q 122 575 97 549 q 188 601 147 601 q 252 575 226 601 q 278 511 278 549 q 252 446 278 472 q 188 419 226 419 m 188 -14 q 122 13 147 -14 q 97 78 97 39 q 122 142 97 117 q 188 168 147 168 q 252 142 226 168 q 278 78 278 117 q 252 13 278 39 q 188 -14 226 -14 z "},";":{"ha":374,"x_min":92,"x_max":286,"o":"m 188 419 q 124 446 149 419 q 99 511 99 472 q 124 575 99 549 q 188 601 149 601 q 253 575 228 601 q 278 511 278 549 q 253 446 278 472 q 188 419 228 419 m 92 -153 l 167 -10 q 121 17 140 -6 q 101 74 101 40 q 128 140 101 113 q 193 168 156 168 q 258 141 231 168 q 286 74 286 114 q 280 37 286 58 q 256 -18 274 15 l 163 -192 l 92 -153 z "},"!":{"ha":363,"x_min":88,"x_max":267,"o":"m 129 306 l 111 992 l 244 992 l 226 306 l 129 306 m 176 -14 q 113 13 138 -14 q 88 78 88 39 q 113 142 88 115 q 176 168 138 168 q 242 142 217 168 q 267 78 267 115 q 242 13 267 39 q 176 -14 217 -14 z "},"¡":{"ha":371,"x_min":94,"x_max":274,"o":"m 185 492 q 119 518 144 492 q 94 582 94 544 q 119 647 94 621 q 185 674 144 674 q 249 647 224 674 q 274 582 274 621 q 249 518 274 544 q 185 492 224 492 m 118 -276 l 136 354 l 233 354 l 251 -276 l 118 -276 z "},"?":{"ha":701,"x_min":56,"x_max":633,"o":"m 304 306 l 303 569 l 340 571 q 458 616 413 571 q 504 729 504 661 q 460 840 504 797 q 340 883 415 883 q 225 849 274 883 q 147 756 176 815 l 56 832 q 171 960 96 914 q 346 1006 246 1006 q 495 972 431 1006 q 597 877 560 938 q 633 738 633 817 q 576 569 633 640 q 421 471 518 499 l 413 306 l 304 306 m 357 -14 q 292 13 318 -14 q 267 78 267 39 q 292 142 267 115 q 357 168 318 168 q 422 142 397 168 q 447 78 447 115 q 422 13 447 39 q 357 -14 397 -14 z "},"¿":{"ha":679,"x_min":71,"x_max":643,"o":"m 347 492 q 282 518 307 492 q 257 583 257 544 q 282 647 257 621 q 347 674 307 674 q 411 647 386 674 q 436 583 436 621 q 411 518 436 544 q 347 492 386 492 m 353 -290 q 207 -256 271 -290 q 107 -160 143 -221 q 71 -21 71 -100 q 128 149 71 79 q 283 246 186 218 l 292 354 l 400 354 l 400 146 l 364 146 q 245 101 290 144 q 200 -12 200 58 q 244 -124 200 -81 q 358 -168 288 -168 q 474 -134 425 -168 q 551 -40 522 -100 l 643 -117 q 527 -244 603 -199 q 353 -290 451 -290 z "},"*":{"ha":681,"x_min":68,"x_max":608,"o":"m 317 475 l 306 696 l 121 576 l 68 681 l 274 758 l 104 893 l 186 975 l 324 807 l 401 1011 l 507 958 l 386 775 l 608 764 l 590 650 l 375 707 l 433 493 l 317 475 z "},"#":{"ha":889,"x_min":67,"x_max":821,"o":"m 164 0 l 208 297 l 67 297 l 67 399 l 225 399 l 253 585 l 110 585 l 110 686 l 268 686 l 311 964 l 418 964 l 375 686 l 565 686 l 608 964 l 715 964 l 672 686 l 821 686 l 821 585 l 657 585 l 629 399 l 778 399 l 778 297 l 614 297 l 568 0 l 461 0 l 507 297 l 315 297 l 271 0 l 164 0 m 332 399 l 522 399 l 550 585 l 360 585 l 332 399 z "},"/":{"ha":542,"x_min":19,"x_max":522,"o":"m 19 -56 l 406 1018 l 522 1018 l 138 -56 l 19 -56 z "},"\\":{"ha":542,"x_min":19,"x_max":522,"o":"m 406 -56 l 19 1018 l 138 1018 l 522 -56 l 406 -56 z "},"(":{"ha":421,"x_min":64,"x_max":379,"o":"m 307 -161 q 176 -3 231 -97 q 93 201 122 90 q 64 432 64 313 q 93 663 64 551 q 176 867 122 774 q 307 1025 231 961 l 379 960 q 227 737 281 874 q 174 432 174 600 q 227 127 174 264 q 379 -96 281 -10 l 307 -161 z "},")":{"ha":419,"x_min":42,"x_max":357,"o":"m 114 -161 l 42 -96 q 193 127 140 -10 q 246 432 246 264 q 193 737 246 600 q 42 960 140 874 l 114 1025 q 244 867 190 961 q 328 663 299 774 q 357 432 357 551 q 328 201 357 313 q 244 -3 299 90 q 114 -161 190 -97 z "},"{":{"ha":449,"x_min":42,"x_max":399,"o":"m 329 -133 q 169 -73 222 -133 q 128 108 117 -12 l 144 281 q 81 383 154 383 l 42 383 l 42 479 l 81 479 q 144 582 154 479 l 128 750 q 169 931 115 871 q 329 992 222 992 l 399 992 l 399 893 l 340 893 q 252 861 278 893 q 233 756 226 829 l 247 603 q 239 497 253 539 q 181 431 225 456 q 239 365 225 407 q 247 260 253 322 l 233 103 q 253 -2 228 29 q 340 -33 278 -33 l 399 -33 l 399 -133 l 329 -133 z "},"}":{"ha":449,"x_min":50,"x_max":407,"o":"m 119 -133 l 50 -133 l 50 -33 l 108 -33 q 196 -2 171 -33 q 215 103 221 29 l 201 260 q 209 365 194 322 q 268 431 224 407 q 209 497 224 456 q 201 603 194 539 l 215 756 q 197 861 222 829 q 108 893 171 893 l 50 893 l 50 992 l 119 992 q 280 931 226 992 q 321 750 333 871 l 304 582 q 368 479 293 479 l 407 479 l 407 383 l 368 383 q 304 281 293 383 l 321 108 q 279 -73 332 -12 q 119 -133 226 -133 z "},"[":{"ha":469,"x_min":110,"x_max":419,"o":"m 110 -133 l 110 992 l 419 992 l 419 893 l 215 893 l 215 -33 l 419 -33 l 419 -133 l 110 -133 z "},"]":{"ha":469,"x_min":50,"x_max":360,"o":"m 50 -133 l 50 -33 l 254 -33 l 254 893 l 50 893 l 50 992 l 360 992 l 360 -133 l 50 -133 z "},"-":{"ha":640,"x_min":92,"x_max":549,"o":"m 92 294 l 92 413 l 549 413 l 549 294 l 92 294 z "},"–":{"ha":763,"x_min":92,"x_max":671,"o":"m 92 300 l 92 407 l 671 407 l 671 300 l 92 300 z "},"—":{"ha":1183,"x_min":92,"x_max":1083,"o":"m 92 301 l 92 404 l 1083 404 l 1083 301 l 92 301 z "},"_":{"ha":701,"x_min":28,"x_max":674,"o":"m 28 -172 l 28 -64 l 674 -64 l 674 -172 l 28 -172 z "},"“":{"ha":600,"x_min":71,"x_max":521,"o":"m 265 965 l 190 822 q 236 795 217 818 q 256 739 256 772 q 228 672 256 700 q 164 644 201 644 q 99 672 126 644 q 71 739 71 700 q 77 776 71 754 q 101 832 83 799 l 194 1004 l 265 965 m 521 965 l 446 822 q 492 795 472 818 q 511 739 511 772 q 484 672 511 700 q 419 644 457 644 q 354 672 382 644 q 326 739 326 700 q 333 776 326 754 q 357 832 339 799 l 450 1004 l 521 965 z "},"”":{"ha":601,"x_min":81,"x_max":531,"o":"m 336 657 l 411 800 q 365 827 385 804 q 346 883 346 850 q 373 950 346 922 q 439 978 400 978 q 503 951 475 978 q 531 883 531 924 q 524 846 531 868 q 500 790 518 824 l 408 618 l 336 657 m 81 657 l 156 800 q 110 827 129 804 q 90 883 90 850 q 117 950 90 922 q 183 978 144 978 q 247 951 219 978 q 275 883 275 924 q 269 846 275 868 q 244 790 263 824 l 153 618 l 81 657 z "},"‘":{"ha":344,"x_min":71,"x_max":265,"o":"m 265 965 l 190 822 q 236 795 217 818 q 256 739 256 772 q 228 672 256 700 q 164 644 201 644 q 99 672 126 644 q 71 739 71 700 q 77 776 71 754 q 101 832 83 799 l 194 1004 l 265 965 z "},"’":{"ha":346,"x_min":81,"x_max":275,"o":"m 81 657 l 156 800 q 110 827 129 804 q 90 883 90 850 q 117 950 90 922 q 183 978 144 978 q 247 951 219 978 q 275 883 275 924 q 269 846 275 868 q 244 790 263 824 l 153 618 l 81 657 z "},"ʼ":{"ha":356,"x_min":65,"x_max":288,"o":"m 65 685 l 160 829 q 119 858 136 836 q 103 911 103 881 q 129 978 103 950 q 196 1006 156 1006 q 261 978 235 1006 q 288 914 288 951 q 279 873 288 896 q 250 818 271 850 l 136 646 l 65 685 z "},"\"":{"ha":556,"x_min":96,"x_max":461,"o":"m 351 653 l 322 992 l 461 992 l 431 653 l 351 653 m 125 653 l 96 992 l 233 992 l 204 653 l 125 653 z "},"'":{"ha":329,"x_min":96,"x_max":233,"o":"m 125 653 l 96 992 l 233 992 l 204 653 l 125 653 z "}," ":{"ha":289,"x_min":0,"x_max":0,"o":""}," ":{"ha":289,"x_min":0,"x_max":0,"o":""},"¢":{"ha":724,"x_min":68,"x_max":667,"o":"m 356 14 l 356 143 q 208 203 272 156 q 106 324 143 251 q 68 482 68 396 q 106 642 68 569 q 208 761 143 714 q 356 821 272 808 l 356 950 l 447 950 l 447 824 q 667 715 582 811 l 585 632 q 447 703 532 692 l 447 261 q 585 333 532 272 l 667 250 q 447 140 583 153 l 447 14 l 356 14 m 197 483 q 240 342 197 400 q 356 265 283 283 l 356 699 q 240 622 283 681 q 197 483 197 564 z "},"$":{"ha":817,"x_min":79,"x_max":726,"o":"m 383 -139 l 383 -14 q 211 31 285 -10 q 79 149 138 72 l 167 236 q 260 143 208 178 q 383 103 313 108 l 383 440 q 292 477 338 457 q 210 527 247 497 q 151 603 174 557 q 129 718 129 650 q 201 895 131 828 q 383 975 272 963 l 383 1103 l 475 1103 l 475 975 q 608 931 547 967 q 710 844 668 896 l 622 757 q 553 822 589 796 q 475 857 517 847 l 475 547 q 594 493 536 525 q 690 406 653 461 q 726 258 726 351 q 660 78 726 147 q 475 -8 593 8 l 475 -139 l 383 -139 m 256 726 q 292 636 256 668 q 383 582 329 604 l 383 860 q 289 817 322 850 q 256 726 256 783 m 596 249 q 561 346 596 311 q 475 404 526 381 l 475 110 q 563 158 531 122 q 596 249 596 194 z "},"€":{"ha":1007,"x_min":35,"x_max":936,"o":"m 35 310 l 35 414 l 132 414 q 128 482 128 447 q 132 553 128 518 l 35 553 l 35 656 l 154 656 q 247 823 185 750 q 398 937 310 896 q 594 978 486 978 q 782 939 701 978 q 929 833 863 900 l 839 743 q 732 826 793 797 q 589 856 671 856 q 406 801 482 856 q 292 656 329 747 l 696 656 l 663 553 l 264 553 q 258 482 260 518 q 264 414 258 447 l 639 414 l 606 310 l 290 310 q 407 163 328 217 q 596 108 486 108 q 739 138 678 108 q 846 222 800 168 l 936 133 q 786 25 869 64 q 594 -14 703 -14 q 398 27 486 -14 q 247 141 310 68 q 154 310 185 214 l 35 310 z "},"£":{"ha":860,"x_min":92,"x_max":779,"o":"m 92 0 l 92 119 l 224 119 l 224 413 l 92 413 l 92 517 l 224 517 l 224 671 q 263 835 224 767 q 369 941 301 904 q 521 978 436 978 q 681 939 619 978 q 779 846 743 900 l 693 760 q 622 831 661 804 q 519 858 583 858 q 401 812 447 858 q 354 683 354 765 l 354 517 l 625 517 l 625 413 l 354 413 l 354 119 l 760 119 l 760 0 l 92 0 z "},"¥":{"ha":896,"x_min":79,"x_max":817,"o":"m 108 310 l 108 414 l 383 414 l 383 419 l 308 553 l 108 553 l 108 656 l 251 656 l 79 964 l 231 964 l 449 536 l 668 964 l 817 964 l 643 656 l 788 656 l 788 553 l 585 553 l 514 426 l 514 414 l 788 414 l 788 310 l 514 310 l 514 0 l 383 0 l 383 310 l 108 310 z "},"+":{"ha":753,"x_min":82,"x_max":671,"o":"m 82 408 l 82 521 l 319 521 l 319 774 l 435 774 l 435 521 l 671 521 l 671 408 l 435 408 l 435 156 l 319 156 l 319 408 l 82 408 z "},"−":{"ha":753,"x_min":82,"x_max":671,"o":"m 82 408 l 82 521 l 671 521 l 671 408 l 82 408 z "},"=":{"ha":753,"x_min":82,"x_max":671,"o":"m 82 568 l 82 681 l 671 681 l 671 568 l 82 568 m 82 249 l 82 361 l 671 361 l 671 249 l 82 249 z "},">":{"ha":764,"x_min":97,"x_max":688,"o":"m 97 649 l 97 775 l 688 511 l 688 421 l 97 157 l 97 282 l 529 465 l 97 649 z "},"<":{"ha":764,"x_min":76,"x_max":667,"o":"m 667 157 l 76 421 l 76 511 l 667 775 l 667 649 l 235 465 l 667 282 l 667 157 z "},"~":{"ha":729,"x_min":63,"x_max":667,"o":"m 485 386 q 397 402 433 386 q 328 434 361 418 q 251 450 294 450 q 135 394 182 450 l 63 465 q 143 542 97 515 q 247 568 189 568 q 338 552 300 568 q 408 520 375 536 q 482 504 440 504 q 596 560 547 504 l 667 489 q 587 413 632 439 q 485 386 542 386 z "},"^":{"ha":629,"x_min":74,"x_max":556,"o":"m 450 635 l 315 878 l 179 635 l 74 635 l 272 992 l 356 992 l 556 635 l 450 635 z "},"%":{"ha":917,"x_min":69,"x_max":849,"o":"m 264 588 q 165 614 210 588 q 95 684 121 640 q 69 783 69 728 q 95 881 69 838 q 165 951 121 925 q 264 978 210 978 q 364 951 319 978 q 435 881 408 925 q 461 783 461 838 q 435 684 461 728 q 364 614 408 640 q 264 588 319 588 m 86 0 l 704 964 l 831 964 l 213 0 l 86 0 m 264 686 q 332 713 306 686 q 358 783 358 740 q 331 853 358 826 q 264 879 304 879 q 198 853 224 879 q 172 783 172 826 q 198 713 172 740 q 264 686 224 686 m 651 -14 q 553 12 597 -14 q 482 82 508 38 q 456 182 456 126 q 482 280 456 236 q 552 350 508 324 q 651 376 596 376 q 750 350 706 376 q 822 280 794 324 q 849 182 849 236 q 822 82 849 126 q 751 12 796 38 q 651 -14 707 -14 m 651 85 q 719 112 693 85 q 746 182 746 139 q 719 251 746 224 q 651 278 692 278 q 585 251 611 278 q 558 182 558 224 q 585 112 558 139 q 651 85 611 85 z "},"✓":{"ha":1081,"x_min":31,"x_max":1050,"o":"m 361 108 l 31 435 l 111 515 l 397 228 l 968 854 l 1050 774 l 432 108 l 361 108 z "},"@":{"ha":1042,"x_min":74,"x_max":969,"o":"m 500 125 q 401 152 446 125 q 331 225 357 179 q 304 328 304 271 q 331 431 304 385 q 401 505 357 478 q 500 532 446 532 q 622 488 581 532 l 622 524 l 713 524 l 713 217 l 851 217 q 867 339 867 265 q 778 593 867 501 q 535 685 690 685 q 350 640 429 685 q 226 515 271 596 q 182 326 182 435 q 225 139 182 218 q 344 16 268 60 q 522 -28 421 -28 q 757 53 667 -28 l 826 -18 q 525 -125 701 -125 q 347 -91 429 -125 q 204 4 265 -57 q 108 148 143 65 q 74 328 74 231 q 109 507 74 424 q 207 652 144 590 q 353 749 269 714 q 533 783 436 783 q 759 725 661 783 q 913 565 857 667 q 969 332 969 464 q 919 135 969 214 l 622 135 l 622 169 q 500 125 581 125 m 506 213 q 585 244 556 213 q 615 329 615 276 q 585 414 615 382 q 506 446 556 446 q 428 413 460 446 q 397 329 397 381 q 428 244 397 276 q 506 213 458 213 z "},"&":{"ha":915,"x_min":81,"x_max":899,"o":"m 400 -14 q 232 24 304 -14 q 120 126 160 61 q 81 278 81 192 q 123 428 81 360 q 246 539 165 496 q 194 627 211 583 q 178 722 178 671 q 213 853 178 794 q 308 945 247 911 q 449 979 369 979 q 599 939 535 979 q 701 842 664 899 l 611 760 q 540 831 579 804 q 449 858 501 858 q 344 820 385 858 q 303 724 303 782 q 324 638 303 674 q 386 558 344 603 l 899 0 l 746 0 l 663 89 q 548 15 617 43 q 400 -14 479 -14 m 206 281 q 261 152 206 199 q 404 104 317 106 q 506 125 463 106 q 581 176 550 144 l 313 464 q 234 389 263 435 q 206 281 206 343 z "},"|":{"ha":386,"x_min":136,"x_max":250,"o":"m 136 -181 l 136 1061 l 250 1061 l 250 -181 l 136 -181 z "},"̀":{"ha":0,"x_min":-167,"x_max":113,"o":"m 56 728 l -167 910 l -69 1007 l 113 783 l 56 728 z "},"`":{"ha":390,"x_min":56,"x_max":335,"o":"m 278 728 l 56 910 l 154 1007 l 335 783 l 278 728 z "}}}
